<svg xmlns="http://www.w3.org/2000/svg" xmlns:xlink="http://www.w3.org/1999/xlink" viewBox="0 0 401.21 405.23"><defs><style>.cls-1,.cls-8{fill:none;}.cls-2{clip-path:url(#clip-path);}.cls-3{clip-path:url(#clip-path-2);}.cls-4{fill:#636363;}.cls-5{fill:#278b07;}.cls-6{fill:#fff;}.cls-7{fill:#248100;}.cls-8{stroke:#278b07;stroke-miterlimit:10;stroke-width:3.81px;}</style><clipPath id="clip-path" transform="translate(0 0)"><rect class="cls-1" width="401.21" height="405.23"/></clipPath><clipPath id="clip-path-2" transform="translate(0 0)"><rect class="cls-1" width="401.21" height="405.23"/></clipPath></defs><title>logogw</title><g id="Layer_2" data-name="Layer 2"><g id="Layer_1-2" data-name="Layer 1"><g class="cls-2"><g class="cls-3"><path class="cls-4" d="M92.8,118.51a1.5,1.5,0,0,0-1.2.37,4.35,4.35,0,0,1-6.41-.16,1.58,1.58,0,0,0-1.17-.49,29.44,29.44,0,0,0-3.64.93c-1,.32-2,.76-3,1.19a10.69,10.69,0,0,0,3.1,5.76,1.06,1.06,0,0,0,.93.07l.71-.28a6.11,6.11,0,0,0-.09.86,6.56,6.56,0,0,0,13.12.43c0-.17,0-.34,0-.51a1.39,1.39,0,0,0,1-.23,11,11,0,0,0,3.29-5.59c-2.25-.82-4.41-1.63-6.59-2.35" transform="translate(0 0)"/><path class="cls-4" d="M88.45,118a4.22,4.22,0,0,0,4.33-4.21,4.13,4.13,0,0,0-4.16-4.32,4.21,4.21,0,0,0-4.37,4.14,4.36,4.36,0,0,0,4.2,4.39" transform="translate(0 0)"/><path class="cls-4" d="M126.47,119.67a1.56,1.56,0,0,0-1.2.38,4.34,4.34,0,0,1-6.41-.17,1.6,1.6,0,0,0-1.16-.48,28.56,28.56,0,0,0-3.64.93c-1,.31-2,.76-3,1.19a10.69,10.69,0,0,0,3.1,5.75,1,1,0,0,0,.93.08l.19-.08a.31.31,0,0,1,0,.1c-.14,3,3,5.54,7,5.64s7.38-2.27,7.52-5.29a.34.34,0,0,0,0-.1h0a10.87,10.87,0,0,0,3.29-5.59c-2.25-.81-4.41-1.63-6.59-2.35" transform="translate(0 0)"/><path class="cls-4" d="M122.13,119.2a4.19,4.19,0,0,0,4.32-4.2,4.13,4.13,0,0,0-4.16-4.32,4.2,4.2,0,0,0-4.37,4.14,4.34,4.34,0,0,0,4.21,4.38" transform="translate(0 0)"/><rect class="cls-5" x="101.12" y="126.31" width="6.87" height="18.22" transform="translate(-34.31 235.35) rotate(-88.07)"/><path class="cls-5" d="M182.65,213.44v5.1A66.91,66.91,0,0,1,178.23,243a59.23,59.23,0,0,1-12.57,19.88,56.92,56.92,0,0,1-19.37,13.17A62.58,62.58,0,0,1,122,280.72a61.07,61.07,0,0,1-25-5.27,64.69,64.69,0,0,1-20.81-14.61,69,69,0,0,1-13.93-21.41,64.9,64.9,0,0,1-5-25.14,66.66,66.66,0,0,1,5.09-25.83,67.65,67.65,0,0,1,14.28-21.57A65.71,65.71,0,0,1,98,152.36a64.93,64.93,0,0,1,25.74-5.18,67,67,0,0,1,29,6.54A64.57,64.57,0,0,1,175.86,172l-11.22,10.71a51.2,51.2,0,0,0-17.84-15.21,47.83,47.83,0,0,0-22.42-5.69,50.72,50.72,0,0,0-20,4A49.2,49.2,0,0,0,88,177a53,53,0,0,0-14.78,36.78,50.82,50.82,0,0,0,3.82,19.28A55.83,55.83,0,0,0,87.76,250a51.44,51.44,0,0,0,16.06,11.8,44.42,44.42,0,0,0,19.2,4.34,39.36,39.36,0,0,0,14.86-3,45.91,45.91,0,0,0,13.43-8.32,45.23,45.23,0,0,0,9.76-12.23A31.5,31.5,0,0,0,165,228.05H131.85V213.44Z" transform="translate(0 0)"/><polygon class="cls-5" points="237.36 241.64 273.55 147.18 309.73 241.64 345.58 149.9 362.91 149.9 309.73 283.1 273.55 189.14 237.36 283.1 184.18 149.9 201.51 149.9 237.36 241.64"/><polygon class="cls-5" points="168.52 175.84 121.36 135.35 131.95 123.14 157.77 145.11 175.6 171.93 168.52 175.84"/><rect class="cls-6" x="45.95" y="221.75" width="310.75" height="14.82"/><path d="M105.6,364.57a128.3,128.3,0,0,1,9.92-10.28c3.48-3.27,7.09-6.39,10.8-9.4a230,230,0,0,1,23.42-16.57c1-.63,2-1.24,3.07-1.86s2.06-1.22,3.1-1.82,2.08-1.19,3.13-1.78l1.57-.87,1.58-.85c4.22-2.28,8.52-4.41,12.87-6.44l3.28-1.48c1.09-.49,2.2-1,3.3-1.43s2.21-.93,3.32-1.39l1.67-.68,1.67-.66,1.68-.65c.56-.22,1.12-.43,1.69-.63l3.38-1.24c2.27-.79,4.53-1.59,6.82-2.31a230.3,230.3,0,0,1,56.44-10.72l3.59-.18,1.79-.08,1.8-.05,3.59-.09h5.38l1.8,0,3.58.09c1.2,0,2.39.11,3.58.17s2.39.1,3.58.21c2.38.19,4.76.34,7.14.61l3.55.37,3.55.47c2.36.28,4.71.7,7.06,1.07,1.18.19,2.35.43,3.51.65l3.5.68c-2.38-.09-4.74-.28-7.11-.36l-3.55-.15c-.6,0-1.19-.06-1.78-.07l-1.78,0-3.54-.09-3.55,0c-2.36,0-4.72,0-7.08,0-1.18,0-2.36.05-3.54.08s-2.35.06-3.53.11l-3.53.17-1.76.08-1.77.12-3.52.23-3.51.3L264,298l-1.75.18-3.51.36a280.61,280.61,0,0,0-54.9,11.79c-2.23.7-4.45,1.46-6.66,2.22l-3.31,1.19c-1.11.39-2.19.82-3.29,1.22-4.39,1.65-8.73,3.43-13,5.28s-8.55,3.85-12.77,5.91l-1.58.78-1.57.79-1.57.8-1.56.81c-1,.55-2.08,1.08-3.12,1.65s-2.07,1.1-3.09,1.68q-12.36,6.79-24.08,14.74-5.86,4-11.53,8.24-2.83,2.14-5.61,4.36c-1.86,1.47-3.67,3-5.46,4.56" transform="translate(0 0)"/><path class="cls-7" d="M401.21,203a207.28,207.28,0,0,1-14.72,76.69q-3.66,9.13-8.18,17.9t-9.87,17.06a202.27,202.27,0,0,1-24.55,30.91,198,198,0,0,1-30.26,25.51c-5.46,3.74-11.12,7.19-16.92,10.37a195,195,0,0,1-55.88,20.13,194.83,194.83,0,0,1-19.67,2.82l-2.47.21c-.83.06-1.65.15-2.48.19l-2.47.15c-.83,0-1.66.1-2.48.12-1.66.05-3.31.11-5,.15l-5,0c-6.62-.05-13.23-.45-19.81-1.15S168.41,402.34,162,401A199.88,199.88,0,0,1,124.27,389a204.17,204.17,0,0,1-34.54-19Q81.58,364.46,74,358.14T59.49,344.83c-4.63-4.66-9-9.55-13.18-14.62s-8.07-10.36-11.73-15.81l-1.35-2c-.45-.69-.91-1.37-1.34-2.07l-1.3-2.09-.65-1c-.22-.35-.43-.7-.64-1.06q-2.53-4.21-4.88-8.55-4.67-8.67-8.49-17.76A203.89,203.89,0,0,1,0,203a200,200,0,0,1,14.53-77.37A199,199,0,0,1,33,90.53,202.81,202.81,0,0,1,88.67,34.38,199.92,199.92,0,0,1,181.43,1c6.62-.63,13.26-1,19.9-.95A200.53,200.53,0,0,1,278.9,15.71C285,18.29,291,21.2,296.8,24.37S308.26,31,313.71,34.79A198.35,198.35,0,0,1,344,60.37,202.85,202.85,0,0,1,368.49,91.3q5.36,8.3,9.87,17.07c3,5.83,5.74,11.82,8.17,17.91l.91,2.28c.14.39.3.77.44,1.15l.42,1.16c.56,1.54,1.15,3.07,1.66,4.63s1.08,3.09,1.55,4.66,1,3.12,1.43,4.7c1.83,6.29,3.38,12.67,4.6,19.1a208.71,208.71,0,0,1,3.67,39m-.64,0a195,195,0,0,0-3.95-38.85,192.22,192.22,0,0,0-4.9-18.91c-.46-1.56-1-3.09-1.52-4.64-.26-.77-.51-1.54-.8-2.3l-.84-2.29c-.54-1.54-1.17-3-1.76-4.56l-.44-1.13c-.15-.38-.32-.75-.47-1.12l-.95-2.25a194.07,194.07,0,0,0-8.6-17.49q-4.74-8.52-10.29-16.52a199.15,199.15,0,0,0-25.12-29.54,202.56,202.56,0,0,0-64.41-41.93c-5.95-2.43-12-4.55-18.19-6.38s-12.4-3.37-18.7-4.59a200.22,200.22,0,0,0-38.3-3.63c-6.42,0-12.84.33-19.23,1s-12.74,1.57-19,2.8a197.75,197.75,0,0,0-143.75,117q-3.76,8.9-6.68,18.15T7.74,164.48A199.86,199.86,0,0,0,3.53,203a197.72,197.72,0,0,0,3.38,38.68c1.2,6.37,2.73,12.69,4.56,18.91s4,12.37,6.45,18.38a194.81,194.81,0,0,0,43,64.41c4.61,4.57,9.47,8.9,14.51,13s10.3,7.91,15.73,11.47a194.18,194.18,0,0,0,34.44,17.92,197.06,197.06,0,0,0,37.2,10.75,204.72,204.72,0,0,0,38.5,3.36l4.83-.1,4.83-.21,4.82-.32c.8-.05,1.6-.14,2.41-.21l2.4-.23q9.62-1,19.09-2.88a201.57,201.57,0,0,0,36.91-11.16A203.71,203.71,0,0,0,341,342.65a199.32,199.32,0,0,0,25.11-29.57q5.55-8,10.29-16.52a192.82,192.82,0,0,0,8.59-17.5l.95-2.25c.16-.37.33-.75.48-1.12l.44-1.14c.59-1.51,1.22-3,1.76-4.55l.84-2.29c.28-.77.54-1.54.8-2.31.51-1.55,1.05-3.08,1.52-4.64a191.63,191.63,0,0,0,4.89-18.92A194.17,194.17,0,0,0,400.57,203" transform="translate(0 0)"/><path class="cls-5" d="M121.77,129.64c-3.39-1.22-6.64-2.45-9.93-3.54a2.3,2.3,0,0,0-1.8.57c-3.08,2.76-6.76,2.66-9.66-.25a2.39,2.39,0,0,0-1.76-.73,44.87,44.87,0,0,0-5.48,1.39c-1.51.48-3,1.16-4.59,1.81a16.11,16.11,0,0,0,4.66,8.67,1.65,1.65,0,0,0,1.4.11,23.65,23.65,0,0,1,20.43.67,2,2,0,0,0,1.78-.27,16.4,16.4,0,0,0,5-8.43" transform="translate(0 0)"/><path class="cls-5" d="M111.82,119.05a6.23,6.23,0,0,0-6.27-6.51A6.34,6.34,0,0,0,99,118.79a6.56,6.56,0,0,0,6.34,6.6,6.34,6.34,0,0,0,6.52-6.34" transform="translate(0 0)"/><path class="cls-8" d="M134.66,112.17a29.52,29.52,0,1,1-27.34-31.55A29.52,29.52,0,0,1,134.66,112.17Z" transform="translate(0 0)"/></g></g></g></g></svg>